<mxfile host="Electron" modified="2024-04-13T08:26:57.712Z" agent="Mozilla/5.0 (Windows NT 10.0; Win64; x64) AppleWebKit/537.36 (KHTML, like Gecko) draw.io/24.1.0 Chrome/120.0.6099.109 Electron/28.1.0 Safari/537.36" etag="WyB8fNbdlvmKfqz6X_j4" version="24.1.0" type="device">
  <diagram name="Page-1" id="SKZbus6FhnrmEia8_8Zk">
    <mxGraphModel dx="1050" dy="621" grid="1" gridSize="10" guides="1" tooltips="1" connect="1" arrows="1" fold="1" page="1" pageScale="1" pageWidth="850" pageHeight="1100" math="0" shadow="0">
      <root>
        <mxCell id="0" />
        <mxCell id="1" parent="0" />
        <mxCell id="lSA4fa6TyGrlwDjGX-Yp-3" value="" style="edgeStyle=orthogonalEdgeStyle;rounded=0;orthogonalLoop=1;jettySize=auto;html=1;" edge="1" parent="1" source="lSA4fa6TyGrlwDjGX-Yp-1" target="lSA4fa6TyGrlwDjGX-Yp-2">
          <mxGeometry relative="1" as="geometry" />
        </mxCell>
        <mxCell id="lSA4fa6TyGrlwDjGX-Yp-1" value="START" style="rounded=1;whiteSpace=wrap;html=1;" vertex="1" parent="1">
          <mxGeometry x="390" y="20" width="120" height="60" as="geometry" />
        </mxCell>
        <mxCell id="lSA4fa6TyGrlwDjGX-Yp-5" value="" style="edgeStyle=orthogonalEdgeStyle;rounded=0;orthogonalLoop=1;jettySize=auto;html=1;" edge="1" parent="1" source="lSA4fa6TyGrlwDjGX-Yp-2" target="lSA4fa6TyGrlwDjGX-Yp-4">
          <mxGeometry relative="1" as="geometry" />
        </mxCell>
        <mxCell id="lSA4fa6TyGrlwDjGX-Yp-2" value="number, i = 1, cem =1" style="shape=parallelogram;perimeter=parallelogramPerimeter;whiteSpace=wrap;html=1;fixedSize=1;" vertex="1" parent="1">
          <mxGeometry x="355" y="120" width="190" height="60" as="geometry" />
        </mxCell>
        <mxCell id="lSA4fa6TyGrlwDjGX-Yp-7" value="" style="edgeStyle=orthogonalEdgeStyle;rounded=0;orthogonalLoop=1;jettySize=auto;html=1;" edge="1" parent="1" source="lSA4fa6TyGrlwDjGX-Yp-4" target="lSA4fa6TyGrlwDjGX-Yp-6">
          <mxGeometry relative="1" as="geometry" />
        </mxCell>
        <mxCell id="lSA4fa6TyGrlwDjGX-Yp-9" value="TRUE" style="edgeLabel;html=1;align=center;verticalAlign=middle;resizable=0;points=[];" vertex="1" connectable="0" parent="lSA4fa6TyGrlwDjGX-Yp-7">
          <mxGeometry x="-0.1" relative="1" as="geometry">
            <mxPoint as="offset" />
          </mxGeometry>
        </mxCell>
        <mxCell id="lSA4fa6TyGrlwDjGX-Yp-4" value="i &amp;lt;= number" style="shape=hexagon;perimeter=hexagonPerimeter2;whiteSpace=wrap;html=1;fixedSize=1;" vertex="1" parent="1">
          <mxGeometry x="390" y="240" width="120" height="80" as="geometry" />
        </mxCell>
        <mxCell id="lSA4fa6TyGrlwDjGX-Yp-11" value="" style="edgeStyle=orthogonalEdgeStyle;rounded=0;orthogonalLoop=1;jettySize=auto;html=1;" edge="1" parent="1" source="lSA4fa6TyGrlwDjGX-Yp-6" target="lSA4fa6TyGrlwDjGX-Yp-10">
          <mxGeometry relative="1" as="geometry" />
        </mxCell>
        <mxCell id="lSA4fa6TyGrlwDjGX-Yp-6" value="cem *= i" style="rounded=0;whiteSpace=wrap;html=1;" vertex="1" parent="1">
          <mxGeometry x="390" y="380" width="120" height="60" as="geometry" />
        </mxCell>
        <mxCell id="lSA4fa6TyGrlwDjGX-Yp-12" style="edgeStyle=orthogonalEdgeStyle;rounded=0;orthogonalLoop=1;jettySize=auto;html=1;exitX=1;exitY=0.5;exitDx=0;exitDy=0;entryX=1;entryY=0.5;entryDx=0;entryDy=0;" edge="1" parent="1" source="lSA4fa6TyGrlwDjGX-Yp-10" target="lSA4fa6TyGrlwDjGX-Yp-4">
          <mxGeometry relative="1" as="geometry">
            <Array as="points">
              <mxPoint x="560" y="520" />
              <mxPoint x="560" y="280" />
            </Array>
          </mxGeometry>
        </mxCell>
        <mxCell id="lSA4fa6TyGrlwDjGX-Yp-10" value="i++" style="rounded=0;whiteSpace=wrap;html=1;" vertex="1" parent="1">
          <mxGeometry x="390" y="490" width="120" height="60" as="geometry" />
        </mxCell>
        <mxCell id="lSA4fa6TyGrlwDjGX-Yp-17" value="" style="edgeStyle=orthogonalEdgeStyle;rounded=0;orthogonalLoop=1;jettySize=auto;html=1;" edge="1" parent="1" source="lSA4fa6TyGrlwDjGX-Yp-13" target="lSA4fa6TyGrlwDjGX-Yp-16">
          <mxGeometry relative="1" as="geometry" />
        </mxCell>
        <mxCell id="lSA4fa6TyGrlwDjGX-Yp-13" value="cem" style="shape=document;whiteSpace=wrap;html=1;boundedLbl=1;" vertex="1" parent="1">
          <mxGeometry x="150" y="250" width="120" height="80" as="geometry" />
        </mxCell>
        <mxCell id="lSA4fa6TyGrlwDjGX-Yp-14" style="edgeStyle=orthogonalEdgeStyle;rounded=0;orthogonalLoop=1;jettySize=auto;html=1;exitX=0;exitY=0.5;exitDx=0;exitDy=0;entryX=1.013;entryY=0.395;entryDx=0;entryDy=0;entryPerimeter=0;" edge="1" parent="1" source="lSA4fa6TyGrlwDjGX-Yp-4" target="lSA4fa6TyGrlwDjGX-Yp-13">
          <mxGeometry relative="1" as="geometry" />
        </mxCell>
        <mxCell id="lSA4fa6TyGrlwDjGX-Yp-15" value="FALSE" style="edgeLabel;html=1;align=center;verticalAlign=middle;resizable=0;points=[];" vertex="1" connectable="0" parent="lSA4fa6TyGrlwDjGX-Yp-14">
          <mxGeometry x="0.0324" relative="1" as="geometry">
            <mxPoint as="offset" />
          </mxGeometry>
        </mxCell>
        <mxCell id="lSA4fa6TyGrlwDjGX-Yp-16" value="END" style="rounded=1;whiteSpace=wrap;html=1;" vertex="1" parent="1">
          <mxGeometry x="150" y="420" width="120" height="60" as="geometry" />
        </mxCell>
      </root>
    </mxGraphModel>
  </diagram>
</mxfile>
